<?xml version='1.0' encoding='UTF-8' standalone='no'?>
<svg height="209.973mm" width="296.926mm" xmlns:inkscape="http://www.inkscape.org/namespaces/inkscape" version="1.2" xmlns:xlink="http://www.w3.org/1999/xlink" xmlns:cc="http://creativecommons.org/ns#" xmlns="http://www.w3.org/2000/svg" baseProfile="tiny" viewBox="0 0 3507 2480">
 <defs/>
 <g fill-rule="evenodd" inkscape:groupmode="layer" stroke-linejoin="bevel" stroke="black" stroke-width="1" id="Page" stroke-linecap="square" inkscape:label="Page" fill="none">
  <g stroke-linejoin="bevel" stroke="#000000" font-weight="400" font-size="32.5" transform="matrix(1,0,0,1,0,0)" font-family="MS Shell Dlg 2" stroke-width="1" stroke-opacity="1" stroke-linecap="square" font-style="normal" fill="none"/>
  <g stroke-linejoin="bevel" stroke="#000000" font-weight="400" font-size="32.5" transform="matrix(1,0,0,1,0,0)" font-family="MS Shell Dlg 2" stroke-width="1" stroke-opacity="1" stroke-linecap="square" font-style="normal" fill="none"/>
  <g stroke-linejoin="bevel" stroke="#000000" font-weight="400" font-size="32.5" transform="matrix(11.8081,0,0,11.8081,0,0)" font-family="MS Shell Dlg 2" stroke-width="1" stroke-opacity="1" stroke-linecap="square" font-style="normal" fill="none"/>
  <g stroke-linejoin="bevel" stroke="#000000" font-weight="400" font-size="32.5" transform="matrix(0.999751,0,0,0.999751,0,0)" font-family="MS Shell Dlg 2" stroke-width="1" stroke-opacity="1" stroke-linecap="square" font-style="normal" fill="none"/>
  <g stroke="none" fill-opacity="1" font-weight="400" font-size="32.5" transform="matrix(0.999751,0,0,0.999751,0,0)" font-family="MS Shell Dlg 2" font-style="normal" fill="#ffffff">
   <path fill-rule="evenodd" vector-effect="none" d="M-2,-2 L3510,-2 L3510,2483 L-2,2483 L-2,-2"/>
  </g>
  <g stroke-linejoin="bevel" stroke="#000000" font-weight="400" font-size="32.5" transform="matrix(0.999751,0,0,0.999751,0,0)" font-family="MS Shell Dlg 2" stroke-width="1" stroke-opacity="1" stroke-linecap="square" font-style="normal" fill="none"/>
  <g stroke-linejoin="bevel" stroke="#000000" font-weight="400" font-size="32.5" transform="matrix(11.8081,0,0,11.8081,0,0)" font-family="MS Shell Dlg 2" stroke-width="1" stroke-opacity="1" stroke-linecap="square" font-style="normal" fill="none"/>
  <g stroke-linejoin="bevel" stroke="#000000" font-weight="400" font-size="32.5" transform="matrix(11.8081,0,0,11.8081,0,0)" font-family="MS Shell Dlg 2" stroke-width="1" stroke-opacity="1" stroke-linecap="square" font-style="normal" fill="none"/>
  <g stroke-linejoin="bevel" stroke="#000000" font-weight="400" font-size="32.5" transform="matrix(1,0,0,1,0,0)" font-family="MS Shell Dlg 2" stroke-width="1" stroke-opacity="1" stroke-linecap="square" font-style="normal" fill="none"/>
 </g>
 <defs/>
 <g fill-rule="evenodd" inkscape:groupmode="layer" stroke-linejoin="bevel" stroke="black" stroke-width="1" id="Map 1: Background" stroke-linecap="square" inkscape:label="Map 1: Background" fill="none">
  <g stroke-linejoin="bevel" stroke="#000000" font-weight="400" font-size="32.5" transform="matrix(1,0,0,1,0,0)" font-family="MS Shell Dlg 2" stroke-width="1" stroke-opacity="1" stroke-linecap="square" font-style="normal" fill="none"/>
  <g stroke-linejoin="bevel" stroke="#000000" font-weight="400" font-size="32.5" transform="matrix(1,0,0,1,0,0)" font-family="MS Shell Dlg 2" stroke-width="1" stroke-opacity="1" stroke-linecap="square" font-style="normal" fill="none"/>
  <g stroke-linejoin="bevel" stroke="#000000" font-weight="400" font-size="32.5" transform="matrix(11.8081,0,0,11.8081,0,0)" font-family="MS Shell Dlg 2" stroke-width="1" stroke-opacity="1" stroke-linecap="square" font-style="normal" fill="none"/>
  <g stroke="none" fill-opacity="1" font-weight="400" font-size="32.5" transform="matrix(11.8081,0,0,11.8081,0,0)" font-family="MS Shell Dlg 2" font-style="normal" fill="#ffffff">
   <path fill-rule="evenodd" vector-effect="none" d="M0,0 L297,0 L297,210 L0,210 L0,0"/>
  </g>
  <g stroke-linejoin="bevel" stroke="#000000" font-weight="400" font-size="32.5" transform="matrix(11.8081,0,0,11.8081,0,0)" font-family="MS Shell Dlg 2" stroke-width="1" stroke-opacity="1" stroke-linecap="square" font-style="normal" fill="none"/>
  <g stroke-linejoin="bevel" stroke="#000000" font-weight="400" font-size="32.5" transform="matrix(11.8081,0,0,11.8081,0,0)" font-family="MS Shell Dlg 2" stroke-width="1" stroke-opacity="1" stroke-linecap="square" font-style="normal" fill="none"/>
  <g stroke-linejoin="bevel" stroke="#000000" font-weight="400" font-size="32.5" transform="matrix(11.8081,0,0,11.8081,0,0)" font-family="MS Shell Dlg 2" stroke-width="1" stroke-opacity="1" stroke-linecap="square" font-style="normal" fill="none"/>
  <g stroke-linejoin="bevel" stroke="#000000" font-weight="400" font-size="32.5" transform="matrix(11.8081,0,0,11.8081,0,0)" font-family="MS Shell Dlg 2" stroke-width="1" stroke-opacity="1" stroke-linecap="square" font-style="normal" fill="none"/>
  <g stroke-linejoin="bevel" stroke="#000000" font-weight="400" font-size="32.5" transform="matrix(1,0,0,1,0,0)" font-family="MS Shell Dlg 2" stroke-width="1" stroke-opacity="1" stroke-linecap="square" font-style="normal" fill="none"/>
  <g stroke-linejoin="bevel" stroke="#000000" font-weight="400" font-size="32.5" transform="matrix(11.8081,0,0,11.8081,0,0)" font-family="MS Shell Dlg 2" stroke-width="1" stroke-opacity="1" stroke-linecap="square" font-style="normal" fill="none"/>
  <g stroke-linejoin="bevel" stroke="#000000" font-weight="400" font-size="32.5" transform="matrix(11.8081,0,0,11.8081,0,0)" font-family="MS Shell Dlg 2" stroke-width="1" stroke-opacity="1" stroke-linecap="square" font-style="normal" fill="none"/>
  <g stroke-linejoin="bevel" stroke="#000000" font-weight="400" font-size="32.5" transform="matrix(1,0,0,1,0,0)" font-family="MS Shell Dlg 2" stroke-width="1" stroke-opacity="1" stroke-linecap="square" font-style="normal" fill="none"/>
 </g>
 <defs/>
 <g fill-rule="evenodd" inkscape:groupmode="layer" stroke-linejoin="bevel" stroke="black" stroke-width="1" id="Map 1: nodes_floor01" stroke-linecap="square" inkscape:label="Map 1: nodes_floor01" fill="none">
  <g stroke-linejoin="bevel" stroke="#000000" font-weight="400" font-size="32.5" transform="matrix(1,0,0,1,0,0)" font-family="MS Shell Dlg 2" stroke-width="1" stroke-opacity="1" stroke-linecap="square" font-style="normal" fill="none"/>
  <g stroke-linejoin="bevel" stroke="#000000" font-weight="400" font-size="32.5" transform="matrix(1,0,0,1,0,0)" font-family="MS Shell Dlg 2" stroke-width="1" stroke-opacity="1" stroke-linecap="square" font-style="normal" fill="none"/>
  <g stroke-linejoin="bevel" stroke="#000000" font-weight="400" font-size="32.5" transform="matrix(11.8081,0,0,11.8081,0,0)" font-family="MS Shell Dlg 2" stroke-width="1" stroke-opacity="1" stroke-linecap="square" font-style="normal" fill="none"/>
  <g stroke-linejoin="bevel" stroke="#000000" font-weight="400" font-size="32.5" transform="matrix(11.8081,0,0,11.8081,0,0)" font-family="MS Shell Dlg 2" stroke-width="1" stroke-opacity="1" stroke-linecap="square" font-style="normal" fill="none"/>
  <g stroke="none" fill-opacity="0" font-weight="400" font-size="32.5" transform="matrix(0.999751,0,0,0.999751,0,0)" font-family="MS Shell Dlg 2" font-style="normal" fill="#000000">
   <rect height="2480" width="3508" x="0" y="0"/>
  </g>
  <g stroke-linejoin="bevel" stroke="#000000" font-weight="400" font-size="32.5" transform="matrix(0.999751,0,0,0.999751,0,0)" font-family="MS Shell Dlg 2" stroke-width="1" stroke-opacity="1" stroke-linecap="square" font-style="normal" fill="none"/>
  <g stroke-linejoin="bevel" stroke="#232323" fill-opacity="1" font-weight="400" font-size="32.5" transform="matrix(0.999751,0,0,0.999751,0,0)" font-family="MS Shell Dlg 2" stroke-width="1" stroke-opacity="1" stroke-linecap="square" font-style="normal" fill="#e8718d">
   <path fill-rule="evenodd" vector-effect="non-scaling-stroke" d="M2570.44,1008.93 C2570.44,1015.45 2565.15,1020.74 2558.63,1020.74 C2552.1,1020.74 2546.82,1015.45 2546.82,1008.93 C2546.82,1002.4 2552.1,997.117 2558.63,997.117 C2565.15,997.117 2570.44,1002.4 2570.44,1008.93 "/>
   <path fill-rule="evenodd" vector-effect="non-scaling-stroke" d="M1670.91,666.446 C1670.91,672.969 1665.62,678.257 1659.1,678.257 C1652.57,678.257 1647.28,672.969 1647.28,666.446 C1647.28,659.923 1652.57,654.635 1659.1,654.635 C1665.62,654.635 1670.91,659.923 1670.91,666.446 "/>
   <path fill-rule="evenodd" vector-effect="non-scaling-stroke" d="M1027.21,967.665 C1027.21,974.188 1021.92,979.476 1015.39,979.476 C1008.87,979.476 1003.58,974.188 1003.58,967.665 C1003.58,961.142 1008.87,955.854 1015.39,955.854 C1021.92,955.854 1027.21,961.142 1027.21,967.665 "/>
  </g>
  <g stroke-linejoin="bevel" stroke="#000000" font-weight="400" font-size="32.5" transform="matrix(0.999751,0,0,0.999751,0,0)" font-family="MS Shell Dlg 2" stroke-width="1" stroke-opacity="1" stroke-linecap="square" font-style="normal" fill="none"/>
  <g stroke-linejoin="bevel" stroke="#000000" font-weight="400" font-size="32.5" transform="matrix(11.8081,0,0,11.8081,0,0)" font-family="MS Shell Dlg 2" stroke-width="1" stroke-opacity="1" stroke-linecap="square" font-style="normal" fill="none"/>
  <g stroke-linejoin="bevel" stroke="#000000" font-weight="400" font-size="32.5" transform="matrix(11.8081,0,0,11.8081,0,0)" font-family="MS Shell Dlg 2" stroke-width="1" stroke-opacity="1" stroke-linecap="square" font-style="normal" fill="none"/>
  <g stroke-linejoin="bevel" stroke="#000000" font-weight="400" font-size="32.5" transform="matrix(11.8081,0,0,11.8081,0,0)" font-family="MS Shell Dlg 2" stroke-width="1" stroke-opacity="1" stroke-linecap="square" font-style="normal" fill="none"/>
  <g stroke-linejoin="bevel" stroke="#000000" font-weight="400" font-size="32.5" transform="matrix(1,0,0,1,0,0)" font-family="MS Shell Dlg 2" stroke-width="1" stroke-opacity="1" stroke-linecap="square" font-style="normal" fill="none"/>
  <g stroke-linejoin="bevel" stroke="#000000" font-weight="400" font-size="32.5" transform="matrix(11.8081,0,0,11.8081,0,0)" font-family="MS Shell Dlg 2" stroke-width="1" stroke-opacity="1" stroke-linecap="square" font-style="normal" fill="none"/>
  <g stroke-linejoin="bevel" stroke="#000000" font-weight="400" font-size="32.5" transform="matrix(11.8081,0,0,11.8081,0,0)" font-family="MS Shell Dlg 2" stroke-width="1" stroke-opacity="1" stroke-linecap="square" font-style="normal" fill="none"/>
  <g stroke-linejoin="bevel" stroke="#000000" font-weight="400" font-size="32.5" transform="matrix(1,0,0,1,0,0)" font-family="MS Shell Dlg 2" stroke-width="1" stroke-opacity="1" stroke-linecap="square" font-style="normal" fill="none"/>
 </g>
 <defs/>
 <g fill-rule="evenodd" inkscape:groupmode="layer" stroke-linejoin="bevel" stroke="black" stroke-width="1" id="Map 2: Background" stroke-linecap="square" inkscape:label="Map 2: Background" fill="none">
  <g stroke-linejoin="bevel" stroke="#000000" font-weight="400" font-size="32.5" transform="matrix(1,0,0,1,0,0)" font-family="MS Shell Dlg 2" stroke-width="1" stroke-opacity="1" stroke-linecap="square" font-style="normal" fill="none"/>
  <g stroke-linejoin="bevel" stroke="#000000" font-weight="400" font-size="32.5" transform="matrix(1,0,0,1,0,0)" font-family="MS Shell Dlg 2" stroke-width="1" stroke-opacity="1" stroke-linecap="square" font-style="normal" fill="none"/>
  <g stroke-linejoin="bevel" stroke="#000000" font-weight="400" font-size="32.5" transform="matrix(11.8081,0,0,11.8081,0,57.2242)" font-family="MS Shell Dlg 2" stroke-width="1" stroke-opacity="1" stroke-linecap="square" font-style="normal" fill="none"/>
  <g stroke="none" fill-opacity="1" font-weight="400" font-size="32.5" transform="matrix(11.8081,0,0,11.8081,0,57.2242)" font-family="MS Shell Dlg 2" font-style="normal" fill="#ffffff">
   <path fill-rule="evenodd" vector-effect="none" d="M0,0 L289.653,0 L289.653,203.167 L0,203.167 L0,0"/>
  </g>
  <g stroke-linejoin="bevel" stroke="#000000" font-weight="400" font-size="32.5" transform="matrix(11.8081,0,0,11.8081,0,57.2242)" font-family="MS Shell Dlg 2" stroke-width="1" stroke-opacity="1" stroke-linecap="square" font-style="normal" fill="none"/>
  <g stroke-linejoin="bevel" stroke="#000000" font-weight="400" font-size="32.5" transform="matrix(11.8081,0,0,11.8081,0,57.2242)" font-family="MS Shell Dlg 2" stroke-width="1" stroke-opacity="1" stroke-linecap="square" font-style="normal" fill="none"/>
  <g stroke-linejoin="bevel" stroke="#000000" font-weight="400" font-size="32.5" transform="matrix(11.8081,0,0,11.8081,0,57.2242)" font-family="MS Shell Dlg 2" stroke-width="1" stroke-opacity="1" stroke-linecap="square" font-style="normal" fill="none"/>
  <g stroke-linejoin="bevel" stroke="#000000" font-weight="400" font-size="32.5" transform="matrix(11.8081,0,0,11.8081,0,57.2242)" font-family="MS Shell Dlg 2" stroke-width="1" stroke-opacity="1" stroke-linecap="square" font-style="normal" fill="none"/>
  <g stroke-linejoin="bevel" stroke="#000000" font-weight="400" font-size="32.5" transform="matrix(1,0,0,1,0,0)" font-family="MS Shell Dlg 2" stroke-width="1" stroke-opacity="1" stroke-linecap="square" font-style="normal" fill="none"/>
  <g stroke-linejoin="bevel" stroke="#000000" font-weight="400" font-size="32.5" transform="matrix(11.8081,0,0,11.8081,0,57.2242)" font-family="MS Shell Dlg 2" stroke-width="1" stroke-opacity="1" stroke-linecap="square" font-style="normal" fill="none"/>
  <g stroke-linejoin="bevel" stroke="#000000" font-weight="400" font-size="32.5" transform="matrix(11.8081,0,0,11.8081,0,57.2242)" font-family="MS Shell Dlg 2" stroke-width="1" stroke-opacity="1" stroke-linecap="square" font-style="normal" fill="none"/>
  <g stroke-linejoin="bevel" stroke="#000000" font-weight="400" font-size="32.5" transform="matrix(1,0,0,1,0,0)" font-family="MS Shell Dlg 2" stroke-width="1" stroke-opacity="1" stroke-linecap="square" font-style="normal" fill="none"/>
 </g>
 <defs/>
 <g fill-rule="evenodd" inkscape:groupmode="layer" stroke-linejoin="bevel" stroke="black" stroke-width="1" id="Map 2: nodes_floor01" stroke-linecap="square" inkscape:label="Map 2: nodes_floor01" fill="none">
  <g stroke-linejoin="bevel" stroke="#000000" font-weight="400" font-size="32.5" transform="matrix(1,0,0,1,0,0)" font-family="MS Shell Dlg 2" stroke-width="1" stroke-opacity="1" stroke-linecap="square" font-style="normal" fill="none"/>
  <g stroke-linejoin="bevel" stroke="#000000" font-weight="400" font-size="32.5" transform="matrix(1,0,0,1,0,0)" font-family="MS Shell Dlg 2" stroke-width="1" stroke-opacity="1" stroke-linecap="square" font-style="normal" fill="none"/>
  <g stroke-linejoin="bevel" stroke="#000000" font-weight="400" font-size="32.5" transform="matrix(11.8081,0,0,11.8081,0,57.2242)" font-family="MS Shell Dlg 2" stroke-width="1" stroke-opacity="1" stroke-linecap="square" font-style="normal" fill="none"/>
  <g stroke-linejoin="bevel" stroke="#000000" font-weight="400" font-size="32.5" transform="matrix(11.8081,0,0,11.8081,0,57.2242)" font-family="MS Shell Dlg 2" stroke-width="1" stroke-opacity="1" stroke-linecap="square" font-style="normal" fill="none"/>
  <g stroke="none" fill-opacity="0" font-weight="400" font-size="32.5" transform="matrix(0.999751,0,0,0.999751,0,57.2242)" font-family="MS Shell Dlg 2" font-style="normal" fill="#000000">
   <rect height="2400" width="3421" x="0" y="0"/>
  </g>
  <g stroke-linejoin="bevel" stroke="#000000" font-weight="400" font-size="32.5" transform="matrix(0.999751,0,0,0.999751,0,57.2242)" font-family="MS Shell Dlg 2" stroke-width="1" stroke-opacity="1" stroke-linecap="square" font-style="normal" fill="none"/>
  <g stroke-linejoin="bevel" stroke="#232323" fill-opacity="1" font-weight="400" font-size="32.5" transform="matrix(0.999751,0,0,0.999751,0,57.2242)" font-family="MS Shell Dlg 2" stroke-width="1" stroke-opacity="1" stroke-linecap="square" font-style="normal" fill="#e8718d">
   <path fill-rule="evenodd" vector-effect="non-scaling-stroke" d="M2527.02,968.905 C2527.02,975.428 2521.73,980.716 2515.21,980.716 C2508.68,980.716 2503.39,975.428 2503.39,968.905 C2503.39,962.382 2508.68,957.094 2515.21,957.094 C2521.73,957.094 2527.02,962.382 2527.02,968.905 "/>
   <path fill-rule="evenodd" vector-effect="non-scaling-stroke" d="M1627.4,626.39 C1627.4,632.913 1622.11,638.201 1615.59,638.201 C1609.06,638.201 1603.78,632.913 1603.78,626.39 C1603.78,619.867 1609.06,614.579 1615.59,614.579 C1622.11,614.579 1627.4,619.867 1627.4,626.39 "/>
   <path fill-rule="evenodd" vector-effect="non-scaling-stroke" d="M983.633,927.638 C983.633,934.161 978.345,939.449 971.822,939.449 C965.299,939.449 960.011,934.161 960.011,927.638 C960.011,921.115 965.299,915.827 971.822,915.827 C978.345,915.827 983.633,921.115 983.633,927.638 "/>
  </g>
  <g stroke-linejoin="bevel" stroke="#000000" font-weight="400" font-size="32.5" transform="matrix(0.999751,0,0,0.999751,0,57.2242)" font-family="MS Shell Dlg 2" stroke-width="1" stroke-opacity="1" stroke-linecap="square" font-style="normal" fill="none"/>
  <g stroke-linejoin="bevel" stroke="#000000" font-weight="400" font-size="32.5" transform="matrix(11.8081,0,0,11.8081,0,57.2242)" font-family="MS Shell Dlg 2" stroke-width="1" stroke-opacity="1" stroke-linecap="square" font-style="normal" fill="none"/>
  <g stroke-linejoin="bevel" stroke="#000000" font-weight="400" font-size="32.5" transform="matrix(11.8081,0,0,11.8081,0,57.2242)" font-family="MS Shell Dlg 2" stroke-width="1" stroke-opacity="1" stroke-linecap="square" font-style="normal" fill="none"/>
  <g stroke-linejoin="bevel" stroke="#000000" font-weight="400" font-size="32.5" transform="matrix(11.8081,0,0,11.8081,0,57.2242)" font-family="MS Shell Dlg 2" stroke-width="1" stroke-opacity="1" stroke-linecap="square" font-style="normal" fill="none"/>
  <g stroke-linejoin="bevel" stroke="#000000" font-weight="400" font-size="32.5" transform="matrix(1,0,0,1,0,0)" font-family="MS Shell Dlg 2" stroke-width="1" stroke-opacity="1" stroke-linecap="square" font-style="normal" fill="none"/>
  <g stroke-linejoin="bevel" stroke="#000000" font-weight="400" font-size="32.5" transform="matrix(11.8081,0,0,11.8081,0,57.2242)" font-family="MS Shell Dlg 2" stroke-width="1" stroke-opacity="1" stroke-linecap="square" font-style="normal" fill="none"/>
  <g stroke-linejoin="bevel" stroke="#000000" font-weight="400" font-size="32.5" transform="matrix(11.8081,0,0,11.8081,0,57.2242)" font-family="MS Shell Dlg 2" stroke-width="1" stroke-opacity="1" stroke-linecap="square" font-style="normal" fill="none"/>
  <g stroke-linejoin="bevel" stroke="#000000" font-weight="400" font-size="32.5" transform="matrix(1,0,0,1,0,0)" font-family="MS Shell Dlg 2" stroke-width="1" stroke-opacity="1" stroke-linecap="square" font-style="normal" fill="none"/>
 </g>
 <metadata>
  <rdf:RDF xmlns:dc="http://purl.org/dc/elements/1.1/" xmlns:rdf="http://www.w3.org/1999/02/22-rdf-syntax-ns#" xmlns:rdfs="http://www.w3.org/2000/01/rdf-schema#">
   <rdf:Description dc:title="" dc:description="" dc:identifier="" dc:format="image/svg+xml" dc:date="2025-09-09T13:00:43">
    <dc:creator>
     <rdf:Bag>
      <rdf:li>wongsaphat Nakmuang</rdf:li>
     </rdf:Bag>
    </dc:creator>
    <dc:publisher>
     <rdf:Bag>
      <rdf:li>QGIS 3.40.10-Bratislava</rdf:li>
     </rdf:Bag>
    </dc:publisher>
    <dc:subject>
     <rdf:Bag/>
    </dc:subject>
   </rdf:Description>
   <cc:Work rdf:about="">
    <dc:format>image/svg+xml</dc:format>
    <dc:title></dc:title>
    <dc:date>2025-09-09T13:00:43</dc:date>
    <dc:identifier></dc:identifier>
    <dc:description></dc:description>
    <dc:creator>
     <cc:Agent>
      <dc:title>wongsaphat Nakmuang</dc:title>
     </cc:Agent>
    </dc:creator>
    <dc:publisher>
     <cc:Agent>
      <dc:title>QGIS 3.40.10-Bratislava</dc:title>
     </cc:Agent>
    </dc:publisher>
   </cc:Work>
  </rdf:RDF>
 </metadata>
</svg>
